<?xml version="1.0" encoding="utf-8"?>
<!-- Generator: Adobe Illustrator 23.0.5, SVG Export Plug-In . SVG Version: 6.00 Build 0)  -->
<svg version="1.1" id="Capa_1" xmlns="http://www.w3.org/2000/svg" xmlns:xlink="http://www.w3.org/1999/xlink" x="0px" y="0px"
	 viewBox="0 0 512 512" style="enable-background:new 0 0 512 512;" xml:space="preserve">
<style type="text/css">
	.st0{fill:#47242E;}
	.st1{fill:#FFFFFF;}
</style>
<circle class="st0" cx="256" cy="256" r="256"/>
<path class="st1" d="M409.5,334.8l-14,60.7c-2,8.6-9.5,14.6-18.3,14.6C225.4,410,102,286.6,102,134.8c0-8.8,6-16.4,14.6-18.3
	l60.7-14c8.8-2,17.9,2.5,21.5,10.9l28,65.3c3.3,7.7,1.1,16.6-5.4,21.9l-32.4,26c20.4,41.7,54.3,75.5,96,96l26.5-32.4
	c5.2-6.5,14.3-8.7,21.9-5.4l65.3,28C406.5,316.9,411.6,326,409.5,334.8z"/>
</svg>
