<?xml version="1.0" encoding="utf-8"?>
<!-- Generator: Adobe Illustrator 23.0.5, SVG Export Plug-In . SVG Version: 6.00 Build 0)  -->
<svg version="1.1" id="Capa_1" focusable="false" xmlns="http://www.w3.org/2000/svg" xmlns:xlink="http://www.w3.org/1999/xlink"
	 x="0px" y="0px" viewBox="0 0 29 29" style="enable-background:new 0 0 29 29;" xml:space="preserve">
<g>
	
		<image style="overflow:visible;" width="451" height="443" xlink:href="../../../Desktop/yape.png"  transform="matrix(6.793395e-02 0 0 6.793395e-02 -34.5454 -0.5474)">
	</image>
</g>
<g>
	<defs>
		<path id="SVGID_1_" d="M27.2,14.5c0,7-5.7,12.7-12.7,12.7c-1.4,0-2.7-0.2-4-0.6c0,0-0.1,0-0.2-0.1c-0.5-0.1-1.9-0.5-3.4-0.2
			c-2,0.4-2.8,0.9-4-0.4c-1.3-1.4-0.2-2.7,0-3.9c0.2-1.2-0.1-2.3-0.3-3c0,0,0,0,0,0c-0.5-1.4-0.8-2.8-0.8-4.4
			c0-7,5.7-12.7,12.7-12.7C21.5,1.8,27.2,7.5,27.2,14.5z"/>
	</defs>
	<clipPath id="SVGID_2_">
		<use xlink:href="#SVGID_1_"  style="overflow:visible;"/>
	</clipPath>
	<g style="clip-path:url(#SVGID_2_);">
		
			<image style="overflow:visible;" width="776" height="1600" xlink:href="ECE1C558.jpg"  transform="matrix(0.1025 0 0 0.1025 -25.2695 -5.262)">
		</image>
	</g>
</g>
</svg>
