<?xml version="1.0" encoding="utf-8"?>
<!-- Generator: Adobe Illustrator 23.0.5, SVG Export Plug-In . SVG Version: 6.00 Build 0)  -->
<svg version="1.1" id="Capa_1" focusable="false" xmlns="http://www.w3.org/2000/svg" xmlns:xlink="http://www.w3.org/1999/xlink"
	 x="0px" y="0px" viewBox="0 0 29 29" style="enable-background:new 0 0 29 29;" xml:space="preserve">
<g>
	
		<image style="overflow:visible;" width="451" height="443" xlink:href="../../../Desktop/yape.png"  transform="matrix(6.793395e-02 0 0 6.793395e-02 -0.8191 -0.5474)">
	</image>
</g>
<g>
	<defs>
		<path id="SVGID_1_" d="M68.2,14.5c0,8-6.5,14.5-14.5,14.5c-1.6,0-3.1-0.3-4.5-0.7c0,0-0.1,0-0.2-0.1c-0.5-0.2-2.1-0.6-3.9-0.2
			c-2.2,0.4-3.2,1.1-4.6-0.5c-1.5-1.5-0.2-3.1,0-4.5c0.2-1.4-0.1-2.7-0.3-3.5c0,0,0,0,0,0c-0.6-1.6-0.9-3.2-0.9-5
			c0-8,6.5-14.5,14.5-14.5C61.7,0,68.2,6.5,68.2,14.5z"/>
	</defs>
	<clipPath id="SVGID_2_">
		<use xlink:href="#SVGID_1_"  style="overflow:visible;"/>
	</clipPath>
	<g style="clip-path:url(#SVGID_2_);">
		
			<image style="overflow:visible;" width="776" height="1600" xlink:href="20691214.jpg"  transform="matrix(0.1169 0 0 0.1169 8.3512 -8.0447)">
		</image>
	</g>
</g>
</svg>
